<mxfile host="app.diagrams.net" agent="Mozilla/5.0 (Windows NT 10.0; Win64; x64) AppleWebKit/537.36 (KHTML, like Gecko) Chrome/131.0.0.0 Safari/537.36 Edg/131.0.0.0" version="25.0.1">
  <diagram name="Page-1" id="e7e014a7-5840-1c2e-5031-d8a46d1fe8dd">
    <mxGraphModel dx="2595" dy="783" grid="1" gridSize="10" guides="1" tooltips="1" connect="1" arrows="1" fold="1" page="1" pageScale="1" pageWidth="1169" pageHeight="826" background="none" math="0" shadow="0">
      <root>
        <mxCell id="0" />
        <mxCell id="1" parent="0" />
        <mxCell id="YzMRsrIyUHtJzSF8FdHi-48" value="Create Session" style="swimlane;whiteSpace=wrap" parent="1" vertex="1">
          <mxGeometry x="164.5" y="128" width="280" height="570" as="geometry" />
        </mxCell>
        <mxCell id="YzMRsrIyUHtJzSF8FdHi-49" value="" style="ellipse;shape=startState;fillColor=#000000;strokeColor=#ff0000;" parent="YzMRsrIyUHtJzSF8FdHi-48" vertex="1">
          <mxGeometry x="100" y="40" width="30" height="30" as="geometry" />
        </mxCell>
        <mxCell id="YzMRsrIyUHtJzSF8FdHi-50" value="" style="edgeStyle=elbowEdgeStyle;elbow=horizontal;verticalAlign=bottom;endArrow=open;endSize=8;strokeColor=#FF0000;endFill=1;rounded=0" parent="YzMRsrIyUHtJzSF8FdHi-48" source="YzMRsrIyUHtJzSF8FdHi-49" target="YzMRsrIyUHtJzSF8FdHi-51" edge="1">
          <mxGeometry x="100" y="40" as="geometry">
            <mxPoint x="115" y="110" as="targetPoint" />
          </mxGeometry>
        </mxCell>
        <mxCell id="YzMRsrIyUHtJzSF8FdHi-51" value="Start session" style="" parent="YzMRsrIyUHtJzSF8FdHi-48" vertex="1">
          <mxGeometry x="60" y="110" width="110" height="50" as="geometry" />
        </mxCell>
        <mxCell id="YzMRsrIyUHtJzSF8FdHi-52" value="Scan QR code&#xa;&amp; join session" style="" parent="YzMRsrIyUHtJzSF8FdHi-48" vertex="1">
          <mxGeometry x="60" y="220" width="110" height="50" as="geometry" />
        </mxCell>
        <mxCell id="YzMRsrIyUHtJzSF8FdHi-53" value="" style="endArrow=open;strokeColor=#FF0000;endFill=1;rounded=0" parent="YzMRsrIyUHtJzSF8FdHi-48" source="YzMRsrIyUHtJzSF8FdHi-51" target="YzMRsrIyUHtJzSF8FdHi-52" edge="1">
          <mxGeometry relative="1" as="geometry" />
        </mxCell>
        <mxCell id="YzMRsrIyUHtJzSF8FdHi-54" value="Game Start" style="" parent="YzMRsrIyUHtJzSF8FdHi-48" vertex="1">
          <mxGeometry x="60" y="354.5" width="110" height="50" as="geometry" />
        </mxCell>
        <mxCell id="YzMRsrIyUHtJzSF8FdHi-55" value="" style="endArrow=open;strokeColor=#FF0000;endFill=1;rounded=0" parent="YzMRsrIyUHtJzSF8FdHi-48" source="YzMRsrIyUHtJzSF8FdHi-52" target="YzMRsrIyUHtJzSF8FdHi-54" edge="1">
          <mxGeometry relative="1" as="geometry" />
        </mxCell>
        <mxCell id="YzMRsrIyUHtJzSF8FdHi-56" value="" style="edgeStyle=elbowEdgeStyle;elbow=horizontal;strokeColor=#FF0000;endArrow=open;endFill=1;rounded=0" parent="YzMRsrIyUHtJzSF8FdHi-48" source="YzMRsrIyUHtJzSF8FdHi-54" target="YzMRsrIyUHtJzSF8FdHi-51" edge="1">
          <mxGeometry width="100" height="100" relative="1" as="geometry">
            <mxPoint x="160" y="290" as="sourcePoint" />
            <mxPoint x="260" y="190" as="targetPoint" />
            <Array as="points">
              <mxPoint x="30" y="250" />
            </Array>
          </mxGeometry>
        </mxCell>
        <mxCell id="YzMRsrIyUHtJzSF8FdHi-57" value="Get Started - Minimal Game Set" style="swimlane;whiteSpace=wrap" parent="1" vertex="1">
          <mxGeometry x="444.5" y="128" width="495.5" height="570" as="geometry" />
        </mxCell>
        <mxCell id="YzMRsrIyUHtJzSF8FdHi-58" value="Werewolf" style="" parent="YzMRsrIyUHtJzSF8FdHi-57" vertex="1">
          <mxGeometry x="195.5" y="285" width="105.5" height="55" as="geometry" />
        </mxCell>
        <mxCell id="YzMRsrIyUHtJzSF8FdHi-59" value="" style="endArrow=open;strokeColor=#FF0000;endFill=1;rounded=0;entryX=0;entryY=0.5;entryDx=0;entryDy=0;" parent="YzMRsrIyUHtJzSF8FdHi-57" target="YzMRsrIyUHtJzSF8FdHi-58" edge="1">
          <mxGeometry relative="1" as="geometry">
            <mxPoint x="141" y="382" as="sourcePoint" />
            <Array as="points">
              <mxPoint x="141" y="368" />
              <mxPoint x="181" y="368" />
              <mxPoint x="181" y="313" />
            </Array>
          </mxGeometry>
        </mxCell>
        <mxCell id="YzMRsrIyUHtJzSF8FdHi-60" value="Narrator" style="" parent="YzMRsrIyUHtJzSF8FdHi-57" vertex="1">
          <mxGeometry x="195.5" y="352" width="105.5" height="55" as="geometry" />
        </mxCell>
        <mxCell id="YzMRsrIyUHtJzSF8FdHi-61" value="" style="edgeStyle=none;strokeColor=#FF0000;endArrow=open;endFill=1;rounded=0;exitX=1;exitY=0.5;exitDx=0;exitDy=0;" parent="YzMRsrIyUHtJzSF8FdHi-57" edge="1">
          <mxGeometry width="100" height="100" relative="1" as="geometry">
            <mxPoint x="75.5" y="379.4999999999999" as="sourcePoint" />
            <mxPoint x="195.5" y="379.34285714285716" as="targetPoint" />
          </mxGeometry>
        </mxCell>
        <mxCell id="YzMRsrIyUHtJzSF8FdHi-62" value="Villager" style="" parent="YzMRsrIyUHtJzSF8FdHi-57" vertex="1">
          <mxGeometry x="195.5" y="422" width="105.5" height="55" as="geometry" />
        </mxCell>
        <mxCell id="YzMRsrIyUHtJzSF8FdHi-63" value="" style="edgeStyle=none;strokeColor=#FF0000;endArrow=open;endFill=1;rounded=0;entryX=0;entryY=0.5;entryDx=0;entryDy=0;" parent="YzMRsrIyUHtJzSF8FdHi-57" target="YzMRsrIyUHtJzSF8FdHi-62" edge="1">
          <mxGeometry width="100" height="100" relative="1" as="geometry">
            <mxPoint x="141" y="382" as="sourcePoint" />
            <mxPoint x="195.5" y="392.34285714285716" as="targetPoint" />
            <Array as="points">
              <mxPoint x="141" y="392" />
              <mxPoint x="181" y="392" />
              <mxPoint x="181" y="450" />
            </Array>
          </mxGeometry>
        </mxCell>
        <mxCell id="YzMRsrIyUHtJzSF8FdHi-64" value="Details to roles &amp; &#xa;overview" style="" parent="YzMRsrIyUHtJzSF8FdHi-57" vertex="1">
          <mxGeometry x="361" y="354.5" width="110" height="50" as="geometry" />
        </mxCell>
        <mxCell id="YzMRsrIyUHtJzSF8FdHi-65" value="" style="edgeStyle=none;strokeColor=#FF0000;endArrow=open;endFill=1;rounded=0;entryX=0;entryY=0.5;entryDx=0;entryDy=0;" parent="YzMRsrIyUHtJzSF8FdHi-57" target="YzMRsrIyUHtJzSF8FdHi-64" edge="1">
          <mxGeometry width="100" height="100" relative="1" as="geometry">
            <mxPoint x="301" y="379" as="sourcePoint" />
            <mxPoint x="355.5" y="379.34285714285716" as="targetPoint" />
          </mxGeometry>
        </mxCell>
        <mxCell id="YzMRsrIyUHtJzSF8FdHi-66" value="" style="endArrow=open;strokeColor=#FF0000;endFill=1;rounded=0;entryX=0;entryY=0.5;entryDx=0;entryDy=0;exitX=1;exitY=0.5;exitDx=0;exitDy=0;" parent="YzMRsrIyUHtJzSF8FdHi-57" target="YzMRsrIyUHtJzSF8FdHi-67" edge="1">
          <mxGeometry relative="1" as="geometry">
            <mxPoint x="55.5" y="379.5" as="sourcePoint" />
            <mxPoint x="610.5" y="508" as="targetPoint" />
          </mxGeometry>
        </mxCell>
        <mxCell id="YzMRsrIyUHtJzSF8FdHi-67" value="random assign &#xa;roles" style="rhombus;fillColor=#ffffc0;strokeColor=#ff0000;" parent="YzMRsrIyUHtJzSF8FdHi-57" vertex="1">
          <mxGeometry x="29.5" y="329.5" width="110" height="100" as="geometry" />
        </mxCell>
        <mxCell id="YzMRsrIyUHtJzSF8FdHi-68" value="" style="edgeStyle=none;strokeColor=#FF0000;endArrow=open;endFill=1;rounded=0;entryX=0;entryY=0.5;entryDx=0;entryDy=0;" parent="YzMRsrIyUHtJzSF8FdHi-57" target="YzMRsrIyUHtJzSF8FdHi-73" edge="1">
          <mxGeometry width="100" height="100" relative="1" as="geometry">
            <mxPoint x="471" y="379" as="sourcePoint" />
            <mxPoint x="531" y="380" as="targetPoint" />
            <Array as="points">
              <mxPoint x="515.5" y="379" />
              <mxPoint x="515.5" y="327" />
            </Array>
          </mxGeometry>
        </mxCell>
        <mxCell id="YzMRsrIyUHtJzSF8FdHi-69" value="End" style="swimlane;whiteSpace=wrap" parent="1" vertex="1">
          <mxGeometry x="940" y="128" width="280" height="570" as="geometry" />
        </mxCell>
        <mxCell id="YzMRsrIyUHtJzSF8FdHi-70" value="end session" style="" parent="YzMRsrIyUHtJzSF8FdHi-69" vertex="1">
          <mxGeometry x="90" y="405" width="110" height="50" as="geometry" />
        </mxCell>
        <mxCell id="YzMRsrIyUHtJzSF8FdHi-71" value="" style="ellipse;shape=endState;fillColor=#000000;strokeColor=#ff0000" parent="YzMRsrIyUHtJzSF8FdHi-69" vertex="1">
          <mxGeometry x="130" y="500" width="30" height="30" as="geometry" />
        </mxCell>
        <mxCell id="YzMRsrIyUHtJzSF8FdHi-72" value="" style="endArrow=open;strokeColor=#FF0000;endFill=1;rounded=0" parent="YzMRsrIyUHtJzSF8FdHi-69" source="YzMRsrIyUHtJzSF8FdHi-70" target="YzMRsrIyUHtJzSF8FdHi-71" edge="1">
          <mxGeometry relative="1" as="geometry" />
        </mxCell>
        <mxCell id="YzMRsrIyUHtJzSF8FdHi-73" value="manually play &#xa;game" style="" parent="YzMRsrIyUHtJzSF8FdHi-69" vertex="1">
          <mxGeometry x="90" y="302" width="110" height="50" as="geometry" />
        </mxCell>
        <mxCell id="YzMRsrIyUHtJzSF8FdHi-74" value="" style="endArrow=open;strokeColor=#FF0000;endFill=1;rounded=0;exitX=0.452;exitY=0.989;exitDx=0;exitDy=0;exitPerimeter=0;" parent="YzMRsrIyUHtJzSF8FdHi-69" source="YzMRsrIyUHtJzSF8FdHi-73" edge="1">
          <mxGeometry relative="1" as="geometry">
            <mxPoint x="140" y="354" as="sourcePoint" />
            <mxPoint x="139.66000000000008" y="405" as="targetPoint" />
          </mxGeometry>
        </mxCell>
        <mxCell id="YzMRsrIyUHtJzSF8FdHi-75" value="" style="endArrow=open;strokeColor=#FF0000;endFill=1;rounded=0;entryX=0;entryY=0.5;entryDx=0;entryDy=0;" parent="1" source="YzMRsrIyUHtJzSF8FdHi-54" target="YzMRsrIyUHtJzSF8FdHi-67" edge="1">
          <mxGeometry relative="1" as="geometry">
            <mxPoint x="390" y="507.5" as="targetPoint" />
          </mxGeometry>
        </mxCell>
        <mxCell id="Cj9OZak73Fwla0zdZp6h-2" value="Player" style="swimlane;fontStyle=0;childLayout=stackLayout;horizontal=1;startSize=30;horizontalStack=0;resizeParent=1;resizeParentMax=0;resizeLast=0;collapsible=1;marginBottom=0;whiteSpace=wrap;html=1;" vertex="1" parent="1">
          <mxGeometry y="826" width="140" height="120" as="geometry" />
        </mxCell>
        <mxCell id="Cj9OZak73Fwla0zdZp6h-3" value="Item 1" style="text;strokeColor=none;fillColor=none;align=left;verticalAlign=middle;spacingLeft=4;spacingRight=4;overflow=hidden;points=[[0,0.5],[1,0.5]];portConstraint=eastwest;rotatable=0;whiteSpace=wrap;html=1;" vertex="1" parent="Cj9OZak73Fwla0zdZp6h-2">
          <mxGeometry y="30" width="140" height="30" as="geometry" />
        </mxCell>
        <mxCell id="Cj9OZak73Fwla0zdZp6h-4" value="Item 2" style="text;strokeColor=none;fillColor=none;align=left;verticalAlign=middle;spacingLeft=4;spacingRight=4;overflow=hidden;points=[[0,0.5],[1,0.5]];portConstraint=eastwest;rotatable=0;whiteSpace=wrap;html=1;" vertex="1" parent="Cj9OZak73Fwla0zdZp6h-2">
          <mxGeometry y="60" width="140" height="30" as="geometry" />
        </mxCell>
        <mxCell id="Cj9OZak73Fwla0zdZp6h-5" value="Item 3" style="text;strokeColor=none;fillColor=none;align=left;verticalAlign=middle;spacingLeft=4;spacingRight=4;overflow=hidden;points=[[0,0.5],[1,0.5]];portConstraint=eastwest;rotatable=0;whiteSpace=wrap;html=1;" vertex="1" parent="Cj9OZak73Fwla0zdZp6h-2">
          <mxGeometry y="90" width="140" height="30" as="geometry" />
        </mxCell>
        <mxCell id="Cj9OZak73Fwla0zdZp6h-6" value="Werewolf" style="swimlane;fontStyle=0;childLayout=stackLayout;horizontal=1;startSize=30;horizontalStack=0;resizeParent=1;resizeParentMax=0;resizeLast=0;collapsible=1;marginBottom=0;whiteSpace=wrap;html=1;" vertex="1" parent="1">
          <mxGeometry y="1020" width="140" height="120" as="geometry" />
        </mxCell>
        <mxCell id="Cj9OZak73Fwla0zdZp6h-7" value="self.id" style="text;strokeColor=none;fillColor=none;align=left;verticalAlign=middle;spacingLeft=4;spacingRight=4;overflow=hidden;points=[[0,0.5],[1,0.5]];portConstraint=eastwest;rotatable=0;whiteSpace=wrap;html=1;" vertex="1" parent="Cj9OZak73Fwla0zdZp6h-6">
          <mxGeometry y="30" width="140" height="30" as="geometry" />
        </mxCell>
        <mxCell id="Cj9OZak73Fwla0zdZp6h-8" value="Item 2" style="text;strokeColor=none;fillColor=none;align=left;verticalAlign=middle;spacingLeft=4;spacingRight=4;overflow=hidden;points=[[0,0.5],[1,0.5]];portConstraint=eastwest;rotatable=0;whiteSpace=wrap;html=1;" vertex="1" parent="Cj9OZak73Fwla0zdZp6h-6">
          <mxGeometry y="60" width="140" height="30" as="geometry" />
        </mxCell>
        <mxCell id="Cj9OZak73Fwla0zdZp6h-9" value="Item 3" style="text;strokeColor=none;fillColor=none;align=left;verticalAlign=middle;spacingLeft=4;spacingRight=4;overflow=hidden;points=[[0,0.5],[1,0.5]];portConstraint=eastwest;rotatable=0;whiteSpace=wrap;html=1;" vertex="1" parent="Cj9OZak73Fwla0zdZp6h-6">
          <mxGeometry y="90" width="140" height="30" as="geometry" />
        </mxCell>
        <mxCell id="Cj9OZak73Fwla0zdZp6h-10" value="Villager" style="swimlane;fontStyle=0;childLayout=stackLayout;horizontal=1;startSize=30;horizontalStack=0;resizeParent=1;resizeParentMax=0;resizeLast=0;collapsible=1;marginBottom=0;whiteSpace=wrap;html=1;" vertex="1" parent="1">
          <mxGeometry x="-160" y="1020" width="140" height="120" as="geometry" />
        </mxCell>
        <mxCell id="Cj9OZak73Fwla0zdZp6h-11" value="self.id" style="text;strokeColor=none;fillColor=none;align=left;verticalAlign=middle;spacingLeft=4;spacingRight=4;overflow=hidden;points=[[0,0.5],[1,0.5]];portConstraint=eastwest;rotatable=0;whiteSpace=wrap;html=1;" vertex="1" parent="Cj9OZak73Fwla0zdZp6h-10">
          <mxGeometry y="30" width="140" height="30" as="geometry" />
        </mxCell>
        <mxCell id="Cj9OZak73Fwla0zdZp6h-12" value="Item 2" style="text;strokeColor=none;fillColor=none;align=left;verticalAlign=middle;spacingLeft=4;spacingRight=4;overflow=hidden;points=[[0,0.5],[1,0.5]];portConstraint=eastwest;rotatable=0;whiteSpace=wrap;html=1;" vertex="1" parent="Cj9OZak73Fwla0zdZp6h-10">
          <mxGeometry y="60" width="140" height="30" as="geometry" />
        </mxCell>
        <mxCell id="Cj9OZak73Fwla0zdZp6h-13" value="Item 3" style="text;strokeColor=none;fillColor=none;align=left;verticalAlign=middle;spacingLeft=4;spacingRight=4;overflow=hidden;points=[[0,0.5],[1,0.5]];portConstraint=eastwest;rotatable=0;whiteSpace=wrap;html=1;" vertex="1" parent="Cj9OZak73Fwla0zdZp6h-10">
          <mxGeometry y="90" width="140" height="30" as="geometry" />
        </mxCell>
        <mxCell id="Cj9OZak73Fwla0zdZp6h-14" value="Narrator" style="swimlane;fontStyle=0;childLayout=stackLayout;horizontal=1;startSize=30;horizontalStack=0;resizeParent=1;resizeParentMax=0;resizeLast=0;collapsible=1;marginBottom=0;whiteSpace=wrap;html=1;" vertex="1" parent="1">
          <mxGeometry x="160" y="1020" width="140" height="120" as="geometry" />
        </mxCell>
        <mxCell id="Cj9OZak73Fwla0zdZp6h-15" value="Item 1" style="text;strokeColor=none;fillColor=none;align=left;verticalAlign=middle;spacingLeft=4;spacingRight=4;overflow=hidden;points=[[0,0.5],[1,0.5]];portConstraint=eastwest;rotatable=0;whiteSpace=wrap;html=1;" vertex="1" parent="Cj9OZak73Fwla0zdZp6h-14">
          <mxGeometry y="30" width="140" height="30" as="geometry" />
        </mxCell>
        <mxCell id="Cj9OZak73Fwla0zdZp6h-16" value="Item 2" style="text;strokeColor=none;fillColor=none;align=left;verticalAlign=middle;spacingLeft=4;spacingRight=4;overflow=hidden;points=[[0,0.5],[1,0.5]];portConstraint=eastwest;rotatable=0;whiteSpace=wrap;html=1;" vertex="1" parent="Cj9OZak73Fwla0zdZp6h-14">
          <mxGeometry y="60" width="140" height="30" as="geometry" />
        </mxCell>
        <mxCell id="Cj9OZak73Fwla0zdZp6h-17" value="Item 3" style="text;strokeColor=none;fillColor=none;align=left;verticalAlign=middle;spacingLeft=4;spacingRight=4;overflow=hidden;points=[[0,0.5],[1,0.5]];portConstraint=eastwest;rotatable=0;whiteSpace=wrap;html=1;" vertex="1" parent="Cj9OZak73Fwla0zdZp6h-14">
          <mxGeometry y="90" width="140" height="30" as="geometry" />
        </mxCell>
        <mxCell id="Cj9OZak73Fwla0zdZp6h-18" value="Priest" style="swimlane;fontStyle=0;childLayout=stackLayout;horizontal=1;startSize=30;horizontalStack=0;resizeParent=1;resizeParentMax=0;resizeLast=0;collapsible=1;marginBottom=0;whiteSpace=wrap;html=1;" vertex="1" parent="1">
          <mxGeometry x="-380" y="1198" width="140" height="120" as="geometry" />
        </mxCell>
        <mxCell id="Cj9OZak73Fwla0zdZp6h-19" value="self.id" style="text;strokeColor=none;fillColor=none;align=left;verticalAlign=middle;spacingLeft=4;spacingRight=4;overflow=hidden;points=[[0,0.5],[1,0.5]];portConstraint=eastwest;rotatable=0;whiteSpace=wrap;html=1;" vertex="1" parent="Cj9OZak73Fwla0zdZp6h-18">
          <mxGeometry y="30" width="140" height="30" as="geometry" />
        </mxCell>
        <mxCell id="Cj9OZak73Fwla0zdZp6h-20" value="Item 2" style="text;strokeColor=none;fillColor=none;align=left;verticalAlign=middle;spacingLeft=4;spacingRight=4;overflow=hidden;points=[[0,0.5],[1,0.5]];portConstraint=eastwest;rotatable=0;whiteSpace=wrap;html=1;" vertex="1" parent="Cj9OZak73Fwla0zdZp6h-18">
          <mxGeometry y="60" width="140" height="30" as="geometry" />
        </mxCell>
        <mxCell id="Cj9OZak73Fwla0zdZp6h-21" value="Item 3" style="text;strokeColor=none;fillColor=none;align=left;verticalAlign=middle;spacingLeft=4;spacingRight=4;overflow=hidden;points=[[0,0.5],[1,0.5]];portConstraint=eastwest;rotatable=0;whiteSpace=wrap;html=1;" vertex="1" parent="Cj9OZak73Fwla0zdZp6h-18">
          <mxGeometry y="90" width="140" height="30" as="geometry" />
        </mxCell>
        <mxCell id="Cj9OZak73Fwla0zdZp6h-22" value="Seer" style="swimlane;fontStyle=0;childLayout=stackLayout;horizontal=1;startSize=30;horizontalStack=0;resizeParent=1;resizeParentMax=0;resizeLast=0;collapsible=1;marginBottom=0;whiteSpace=wrap;html=1;" vertex="1" parent="1">
          <mxGeometry x="-380" y="1074" width="140" height="120" as="geometry" />
        </mxCell>
        <mxCell id="Cj9OZak73Fwla0zdZp6h-23" value="self.id" style="text;strokeColor=none;fillColor=none;align=left;verticalAlign=middle;spacingLeft=4;spacingRight=4;overflow=hidden;points=[[0,0.5],[1,0.5]];portConstraint=eastwest;rotatable=0;whiteSpace=wrap;html=1;" vertex="1" parent="Cj9OZak73Fwla0zdZp6h-22">
          <mxGeometry y="30" width="140" height="30" as="geometry" />
        </mxCell>
        <mxCell id="Cj9OZak73Fwla0zdZp6h-24" value="Item 2" style="text;strokeColor=none;fillColor=none;align=left;verticalAlign=middle;spacingLeft=4;spacingRight=4;overflow=hidden;points=[[0,0.5],[1,0.5]];portConstraint=eastwest;rotatable=0;whiteSpace=wrap;html=1;" vertex="1" parent="Cj9OZak73Fwla0zdZp6h-22">
          <mxGeometry y="60" width="140" height="30" as="geometry" />
        </mxCell>
        <mxCell id="Cj9OZak73Fwla0zdZp6h-25" value="Item 3" style="text;strokeColor=none;fillColor=none;align=left;verticalAlign=middle;spacingLeft=4;spacingRight=4;overflow=hidden;points=[[0,0.5],[1,0.5]];portConstraint=eastwest;rotatable=0;whiteSpace=wrap;html=1;" vertex="1" parent="Cj9OZak73Fwla0zdZp6h-22">
          <mxGeometry y="90" width="140" height="30" as="geometry" />
        </mxCell>
        <mxCell id="Cj9OZak73Fwla0zdZp6h-26" value="Witch" style="swimlane;fontStyle=0;childLayout=stackLayout;horizontal=1;startSize=30;horizontalStack=0;resizeParent=1;resizeParentMax=0;resizeLast=0;collapsible=1;marginBottom=0;whiteSpace=wrap;html=1;" vertex="1" parent="1">
          <mxGeometry x="-380" y="950" width="140" height="120" as="geometry" />
        </mxCell>
        <mxCell id="Cj9OZak73Fwla0zdZp6h-27" value="self.id" style="text;strokeColor=none;fillColor=none;align=left;verticalAlign=middle;spacingLeft=4;spacingRight=4;overflow=hidden;points=[[0,0.5],[1,0.5]];portConstraint=eastwest;rotatable=0;whiteSpace=wrap;html=1;" vertex="1" parent="Cj9OZak73Fwla0zdZp6h-26">
          <mxGeometry y="30" width="140" height="30" as="geometry" />
        </mxCell>
        <mxCell id="Cj9OZak73Fwla0zdZp6h-28" value="Item 2" style="text;strokeColor=none;fillColor=none;align=left;verticalAlign=middle;spacingLeft=4;spacingRight=4;overflow=hidden;points=[[0,0.5],[1,0.5]];portConstraint=eastwest;rotatable=0;whiteSpace=wrap;html=1;" vertex="1" parent="Cj9OZak73Fwla0zdZp6h-26">
          <mxGeometry y="60" width="140" height="30" as="geometry" />
        </mxCell>
        <mxCell id="Cj9OZak73Fwla0zdZp6h-29" value="Item 3" style="text;strokeColor=none;fillColor=none;align=left;verticalAlign=middle;spacingLeft=4;spacingRight=4;overflow=hidden;points=[[0,0.5],[1,0.5]];portConstraint=eastwest;rotatable=0;whiteSpace=wrap;html=1;" vertex="1" parent="Cj9OZak73Fwla0zdZp6h-26">
          <mxGeometry y="90" width="140" height="30" as="geometry" />
        </mxCell>
        <mxCell id="Cj9OZak73Fwla0zdZp6h-30" value="Hunter" style="swimlane;fontStyle=0;childLayout=stackLayout;horizontal=1;startSize=30;horizontalStack=0;resizeParent=1;resizeParentMax=0;resizeLast=0;collapsible=1;marginBottom=0;whiteSpace=wrap;html=1;" vertex="1" parent="1">
          <mxGeometry x="-380" y="826" width="140" height="120" as="geometry" />
        </mxCell>
        <mxCell id="Cj9OZak73Fwla0zdZp6h-31" value="self.id" style="text;strokeColor=none;fillColor=none;align=left;verticalAlign=middle;spacingLeft=4;spacingRight=4;overflow=hidden;points=[[0,0.5],[1,0.5]];portConstraint=eastwest;rotatable=0;whiteSpace=wrap;html=1;" vertex="1" parent="Cj9OZak73Fwla0zdZp6h-30">
          <mxGeometry y="30" width="140" height="30" as="geometry" />
        </mxCell>
        <mxCell id="Cj9OZak73Fwla0zdZp6h-32" value="Item 2" style="text;strokeColor=none;fillColor=none;align=left;verticalAlign=middle;spacingLeft=4;spacingRight=4;overflow=hidden;points=[[0,0.5],[1,0.5]];portConstraint=eastwest;rotatable=0;whiteSpace=wrap;html=1;" vertex="1" parent="Cj9OZak73Fwla0zdZp6h-30">
          <mxGeometry y="60" width="140" height="30" as="geometry" />
        </mxCell>
        <mxCell id="Cj9OZak73Fwla0zdZp6h-33" value="Item 3" style="text;strokeColor=none;fillColor=none;align=left;verticalAlign=middle;spacingLeft=4;spacingRight=4;overflow=hidden;points=[[0,0.5],[1,0.5]];portConstraint=eastwest;rotatable=0;whiteSpace=wrap;html=1;" vertex="1" parent="Cj9OZak73Fwla0zdZp6h-30">
          <mxGeometry y="90" width="140" height="30" as="geometry" />
        </mxCell>
        <mxCell id="Cj9OZak73Fwla0zdZp6h-34" value="" style="endArrow=none;html=1;rounded=0;exitX=0.996;exitY=0.113;exitDx=0;exitDy=0;exitPerimeter=0;entryX=1.007;entryY=0.15;entryDx=0;entryDy=0;entryPerimeter=0;" edge="1" parent="1" source="Cj9OZak73Fwla0zdZp6h-30" target="Cj9OZak73Fwla0zdZp6h-18">
          <mxGeometry width="50" height="50" relative="1" as="geometry">
            <mxPoint x="130" y="1130" as="sourcePoint" />
            <mxPoint x="-200" y="1220" as="targetPoint" />
            <Array as="points">
              <mxPoint x="-200" y="840" />
              <mxPoint x="-200" y="1216" />
            </Array>
          </mxGeometry>
        </mxCell>
        <mxCell id="Cj9OZak73Fwla0zdZp6h-35" value="" style="endArrow=none;html=1;rounded=0;exitX=1.004;exitY=0.149;exitDx=0;exitDy=0;exitPerimeter=0;" edge="1" parent="1" source="Cj9OZak73Fwla0zdZp6h-26">
          <mxGeometry width="50" height="50" relative="1" as="geometry">
            <mxPoint x="-130" y="1070" as="sourcePoint" />
            <mxPoint x="-200" y="968" as="targetPoint" />
          </mxGeometry>
        </mxCell>
        <mxCell id="Cj9OZak73Fwla0zdZp6h-36" value="" style="endArrow=none;html=1;rounded=0;exitX=1.004;exitY=0.149;exitDx=0;exitDy=0;exitPerimeter=0;" edge="1" parent="1">
          <mxGeometry width="50" height="50" relative="1" as="geometry">
            <mxPoint x="-240" y="1090" as="sourcePoint" />
            <mxPoint x="-201" y="1090" as="targetPoint" />
          </mxGeometry>
        </mxCell>
        <mxCell id="Cj9OZak73Fwla0zdZp6h-37" value="" style="endArrow=none;html=1;rounded=0;exitX=1.004;exitY=0.149;exitDx=0;exitDy=0;exitPerimeter=0;" edge="1" parent="1">
          <mxGeometry width="50" height="50" relative="1" as="geometry">
            <mxPoint x="-199" y="1040" as="sourcePoint" />
            <mxPoint x="-160" y="1040" as="targetPoint" />
          </mxGeometry>
        </mxCell>
        <mxCell id="Cj9OZak73Fwla0zdZp6h-38" value="" style="endArrow=none;html=1;rounded=0;exitX=0.5;exitY=0;exitDx=0;exitDy=0;entryX=0.564;entryY=1.009;entryDx=0;entryDy=0;entryPerimeter=0;" edge="1" parent="1" source="Cj9OZak73Fwla0zdZp6h-10" target="Cj9OZak73Fwla0zdZp6h-5">
          <mxGeometry width="50" height="50" relative="1" as="geometry">
            <mxPoint x="-130" y="1070" as="sourcePoint" />
            <mxPoint x="80" y="950" as="targetPoint" />
            <Array as="points">
              <mxPoint x="-90" y="980" />
              <mxPoint x="79" y="980" />
            </Array>
          </mxGeometry>
        </mxCell>
        <mxCell id="Cj9OZak73Fwla0zdZp6h-39" value="" style="endArrow=none;html=1;rounded=0;entryX=0.5;entryY=0;entryDx=0;entryDy=0;" edge="1" parent="1" target="Cj9OZak73Fwla0zdZp6h-14">
          <mxGeometry width="50" height="50" relative="1" as="geometry">
            <mxPoint x="70" y="980" as="sourcePoint" />
            <mxPoint x="50" y="960" as="targetPoint" />
            <Array as="points">
              <mxPoint x="230" y="980" />
            </Array>
          </mxGeometry>
        </mxCell>
        <mxCell id="Cj9OZak73Fwla0zdZp6h-41" value="" style="endArrow=none;html=1;rounded=0;exitX=0.57;exitY=-0.004;exitDx=0;exitDy=0;exitPerimeter=0;" edge="1" parent="1">
          <mxGeometry width="50" height="50" relative="1" as="geometry">
            <mxPoint x="78.79999999999995" y="1019.52" as="sourcePoint" />
            <mxPoint x="79" y="980" as="targetPoint" />
          </mxGeometry>
        </mxCell>
        <mxCell id="Cj9OZak73Fwla0zdZp6h-42" value="Daytime" style="swimlane;fontStyle=0;childLayout=stackLayout;horizontal=1;startSize=30;horizontalStack=0;resizeParent=1;resizeParentMax=0;resizeLast=0;collapsible=1;marginBottom=0;whiteSpace=wrap;html=1;" vertex="1" parent="1">
          <mxGeometry x="460" y="826" width="140" height="120" as="geometry" />
        </mxCell>
        <mxCell id="Cj9OZak73Fwla0zdZp6h-43" value="Item 1" style="text;strokeColor=none;fillColor=none;align=left;verticalAlign=middle;spacingLeft=4;spacingRight=4;overflow=hidden;points=[[0,0.5],[1,0.5]];portConstraint=eastwest;rotatable=0;whiteSpace=wrap;html=1;" vertex="1" parent="Cj9OZak73Fwla0zdZp6h-42">
          <mxGeometry y="30" width="140" height="30" as="geometry" />
        </mxCell>
        <mxCell id="Cj9OZak73Fwla0zdZp6h-44" value="Item 2" style="text;strokeColor=none;fillColor=none;align=left;verticalAlign=middle;spacingLeft=4;spacingRight=4;overflow=hidden;points=[[0,0.5],[1,0.5]];portConstraint=eastwest;rotatable=0;whiteSpace=wrap;html=1;" vertex="1" parent="Cj9OZak73Fwla0zdZp6h-42">
          <mxGeometry y="60" width="140" height="30" as="geometry" />
        </mxCell>
        <mxCell id="Cj9OZak73Fwla0zdZp6h-45" value="Item 3" style="text;strokeColor=none;fillColor=none;align=left;verticalAlign=middle;spacingLeft=4;spacingRight=4;overflow=hidden;points=[[0,0.5],[1,0.5]];portConstraint=eastwest;rotatable=0;whiteSpace=wrap;html=1;" vertex="1" parent="Cj9OZak73Fwla0zdZp6h-42">
          <mxGeometry y="90" width="140" height="30" as="geometry" />
        </mxCell>
        <mxCell id="Cj9OZak73Fwla0zdZp6h-46" value="Nighttime" style="swimlane;fontStyle=0;childLayout=stackLayout;horizontal=1;startSize=30;horizontalStack=0;resizeParent=1;resizeParentMax=0;resizeLast=0;collapsible=1;marginBottom=0;whiteSpace=wrap;html=1;" vertex="1" parent="1">
          <mxGeometry x="460" y="970" width="140" height="120" as="geometry" />
        </mxCell>
        <mxCell id="Cj9OZak73Fwla0zdZp6h-47" value="Item 1" style="text;strokeColor=none;fillColor=none;align=left;verticalAlign=middle;spacingLeft=4;spacingRight=4;overflow=hidden;points=[[0,0.5],[1,0.5]];portConstraint=eastwest;rotatable=0;whiteSpace=wrap;html=1;" vertex="1" parent="Cj9OZak73Fwla0zdZp6h-46">
          <mxGeometry y="30" width="140" height="30" as="geometry" />
        </mxCell>
        <mxCell id="Cj9OZak73Fwla0zdZp6h-48" value="Item 2" style="text;strokeColor=none;fillColor=none;align=left;verticalAlign=middle;spacingLeft=4;spacingRight=4;overflow=hidden;points=[[0,0.5],[1,0.5]];portConstraint=eastwest;rotatable=0;whiteSpace=wrap;html=1;" vertex="1" parent="Cj9OZak73Fwla0zdZp6h-46">
          <mxGeometry y="60" width="140" height="30" as="geometry" />
        </mxCell>
        <mxCell id="Cj9OZak73Fwla0zdZp6h-49" value="Item 3" style="text;strokeColor=none;fillColor=none;align=left;verticalAlign=middle;spacingLeft=4;spacingRight=4;overflow=hidden;points=[[0,0.5],[1,0.5]];portConstraint=eastwest;rotatable=0;whiteSpace=wrap;html=1;" vertex="1" parent="Cj9OZak73Fwla0zdZp6h-46">
          <mxGeometry y="90" width="140" height="30" as="geometry" />
        </mxCell>
      </root>
    </mxGraphModel>
  </diagram>
</mxfile>
